# Blender v2.83.0 OBJ File: ''
# www.blender.org
mtllib complex_model.mtl
o Cone
v 0.007660 1.000000 0.038507
v 0.195090 -1.000000 0.980785
v 0.015025 1.000000 0.036273
v 0.382683 -1.000000 0.923880
v 0.021813 1.000000 0.032645
v 0.555570 -1.000000 0.831470
v 0.027762 1.000000 0.027762
v 0.707107 -1.000000 0.707107
v 0.032645 1.000000 0.021812
v 0.831470 -1.000000 0.555570
v 0.036273 1.000000 0.015024
v 0.923880 -1.000000 0.382683
v 0.038507 1.000000 0.007659
v 0.980785 -1.000000 0.195090
v 0.039262 1.000000 -0.000000
v 1.000000 -1.000000 -0.000000
v 0.038507 1.000000 -0.007660
v 0.980785 -1.000000 -0.195090
v 0.036273 1.000000 -0.015025
v 0.923880 -1.000000 -0.382683
v 0.032645 1.000000 -0.021813
v 0.831470 -1.000000 -0.555570
v 0.027762 1.000000 -0.027762
v 0.707107 -1.000000 -0.707107
v 0.021813 1.000000 -0.032645
v 0.555570 -1.000000 -0.831470
v 0.015025 1.000000 -0.036273
v 0.382683 -1.000000 -0.923880
v 0.007660 1.000000 -0.038507
v 0.195090 -1.000000 -0.980785
v 0.000000 1.000000 -0.039262
v 0.000000 -1.000000 -1.000000
v 1.149607 0.000000 0.768143
v 0.768143 0.000000 -1.149607
v -0.000000 -1.000000 1.000000
v 0.000000 1.000000 0.039261
v -0.195091 -1.000000 0.980785
v -0.007659 1.000000 0.038507
v -0.382684 -1.000000 0.923879
v -0.015025 1.000000 0.036273
v -0.555571 -1.000000 0.831469
v -0.021812 1.000000 0.032644
v -0.707107 -1.000000 0.707106
v -0.027762 1.000000 0.027762
v -0.831470 -1.000000 0.555570
v -0.032645 1.000000 0.021812
v -0.923880 -1.000000 0.382683
v -0.036273 1.000000 0.015024
v -0.980785 -1.000000 0.195089
v -0.038507 1.000000 0.007659
v -1.000000 -1.000000 -0.000001
v -0.039261 1.000000 -0.000000
v -0.980785 -1.000000 -0.195091
v -0.038507 1.000000 -0.007660
v -0.923879 -1.000000 -0.382684
v -0.036273 1.000000 -0.015025
v -0.831469 -1.000000 -0.555571
v -0.032645 1.000000 -0.021813
v -0.707106 -1.000000 -0.707108
v -0.027762 1.000000 -0.027762
v -0.555569 -1.000000 -0.831470
v -0.021812 1.000000 -0.032645
v -0.382682 -1.000000 -0.923880
v -0.015025 1.000000 -0.036273
v -0.195089 -1.000000 -0.980786
v -0.007659 1.000000 -0.038507
v 0.529106 0.000000 -1.277375
v 1.356054 0.000000 0.269736
v 1.356054 0.000000 -0.269736
v 1.149607 0.000000 -0.768143
v 1.277375 0.000000 -0.529106
v 0.977661 0.000000 -0.977661
v 1.382621 0.000000 0.000000
v 0.269736 0.000000 -1.356054
v -0.000000 0.000000 -1.382621
v 1.277375 0.000000 0.529106
v 0.977661 0.000000 0.977661
v 0.768143 0.000000 1.149607
v 0.529106 0.000000 1.277375
v 0.269736 0.000000 1.356054
v -0.000000 0.000000 1.382621
v -0.269737 0.000000 1.356054
v -0.529107 0.000000 1.277375
v -0.768144 0.000000 1.149607
v -0.977661 0.000000 0.977660
v -1.149608 0.000000 0.768142
v -1.277376 0.000000 0.529105
v -1.356055 0.000000 0.269735
v -1.382621 0.000000 -0.000001
v -1.356054 0.000000 -0.269737
v -1.277375 0.000000 -0.529107
v -1.149606 0.000000 -0.768144
v -0.977659 0.000000 -0.977662
v -0.768142 0.000000 -1.149608
v -0.529104 0.000000 -1.277376
v -0.269734 0.000000 -1.356055
v 0.551348 -1.000000 0.551348
v 0.433192 -1.000000 0.648317
v 0.648317 -1.000000 0.433191
v 0.298388 -1.000000 -0.720371
v 0.433192 -1.000000 -0.648317
v 0.764742 -1.000000 0.152116
v 0.720371 -1.000000 0.298387
v 0.152117 -1.000000 -0.764742
v 0.764742 -1.000000 -0.152117
v 0.779724 -1.000000 -0.000000
v 0.648317 -1.000000 -0.433192
v 0.720371 -1.000000 -0.298388
v 0.551348 -1.000000 -0.551348
v 0.000000 -1.000000 -0.779724
v 0.298387 -1.000000 0.720371
v 0.152116 -1.000000 0.764742
v -0.000000 -1.000000 0.779724
v -0.152117 -1.000000 0.764742
v -0.298388 -1.000000 0.720371
v -0.433192 -1.000000 0.648317
v -0.551349 -1.000000 0.551348
v -0.648317 -1.000000 0.433191
v -0.720371 -1.000000 0.298387
v -0.764742 -1.000000 0.152116
v -0.779724 -1.000000 -0.000001
v -0.764742 -1.000000 -0.152118
v -0.720371 -1.000000 -0.298388
v -0.648316 -1.000000 -0.433192
v -0.551348 -1.000000 -0.551349
v -0.433191 -1.000000 -0.648318
v -0.298386 -1.000000 -0.720372
v -0.152115 -1.000000 -0.764742
v 0.789353 -0.000857 0.789353
v 0.620191 -0.000857 0.928181
v 0.928181 -0.000857 0.620191
v 0.427195 -0.000857 -1.031340
v 0.620191 -0.000857 -0.928181
v 1.094864 -0.000857 0.217782
v 1.031340 -0.000857 0.427195
v 0.217782 -0.000857 -1.094864
v 1.094864 -0.000857 -0.217782
v 1.116314 -0.000857 -0.000000
v 0.928181 -0.000857 -0.620191
v 1.031340 -0.000857 -0.427195
v 0.789353 -0.000857 -0.789353
v -0.000000 -0.000857 -1.116314
v 0.427195 -0.000857 1.031340
v 0.217782 -0.000857 1.094864
v -0.000000 -0.000857 1.116314
v -0.217783 -0.000857 1.094864
v -0.427195 -0.000857 1.031340
v -0.620191 -0.000857 0.928181
v -0.789354 -0.000857 0.789353
v -0.928182 -0.000857 0.620190
v -1.031340 -0.000857 0.427194
v -1.094865 -0.000857 0.217781
v -1.116314 -0.000857 -0.000001
v -1.094864 -0.000857 -0.217783
v -1.031339 -0.000857 -0.427196
v -0.928180 -0.000857 -0.620192
v -0.789352 -0.000857 -0.789354
v -0.620190 -0.000857 -0.928182
v -0.427193 -0.000857 -1.031340
v -0.217780 -0.000857 -1.094865
v 0.016299 0.963901 0.016299
v 0.012806 0.963901 0.019165
v 0.019166 0.963901 0.012806
v 0.008821 0.963901 -0.021296
v 0.012806 0.963901 -0.019166
v 0.022607 0.963901 0.004497
v 0.021296 0.963901 0.008821
v 0.004497 0.963901 -0.022608
v 0.022607 0.963901 -0.004497
v 0.023050 0.963901 -0.000000
v 0.019166 0.963901 -0.012806
v 0.021296 0.963901 -0.008821
v 0.016299 0.963901 -0.016299
v 0.000000 0.963901 -0.023050
v 0.008821 0.963901 0.021295
v 0.004497 0.963901 0.022607
v 0.000000 0.963901 0.023050
v -0.004497 0.963901 0.022607
v -0.008821 0.963901 0.021295
v -0.012806 0.963901 0.019165
v -0.016299 0.963901 0.016299
v -0.019165 0.963901 0.012806
v -0.021295 0.963901 0.008821
v -0.022607 0.963901 0.004497
v -0.023050 0.963901 -0.000000
v -0.022607 0.963901 -0.004497
v -0.021295 0.963901 -0.008821
v -0.019165 0.963901 -0.012806
v -0.016299 0.963901 -0.016299
v -0.012806 0.963901 -0.019166
v -0.008821 0.963901 -0.021296
v -0.004497 0.963901 -0.022608
vt 1.000000 0.750000
vt 1.000000 1.000000
vt 0.968750 1.000000
vt 0.968750 0.750000
vt 0.687500 0.500000
vt 0.687500 0.750000
vt 0.656250 0.750000
vt 0.656250 0.500000
vt 0.968750 0.750000
vt 0.968750 1.000000
vt 0.937500 1.000000
vt 0.937500 0.750000
vt 0.718750 0.500000
vt 0.718750 0.750000
vt 0.687500 0.750000
vt 0.687500 0.500000
vt 0.937500 0.750000
vt 0.937500 1.000000
vt 0.906250 1.000000
vt 0.906250 0.750000
vt 0.750000 0.500000
vt 0.750000 0.750000
vt 0.906250 0.750000
vt 0.906250 1.000000
vt 0.875000 1.000000
vt 0.875000 0.750000
vt 0.781250 0.500000
vt 0.781250 0.750000
vt 0.750000 0.750000
vt 0.750000 0.500000
vt 0.875000 0.750000
vt 0.875000 1.000000
vt 0.843750 1.000000
vt 0.843750 0.750000
vt 0.812500 0.500000
vt 0.812500 0.750000
vt 0.781250 0.750000
vt 0.781250 0.500000
vt 0.843750 0.750000
vt 0.843750 1.000000
vt 0.812500 1.000000
vt 0.812500 0.750000
vt 0.843750 0.500000
vt 0.812500 0.500000
vt 0.812500 1.000000
vt 0.781250 1.000000
vt 0.875000 0.500000
vt 0.843750 0.500000
vt 0.781250 1.000000
vt 0.750000 1.000000
vt 0.968750 0.500000
vt 0.937500 0.500000
vt 0.750000 1.000000
vt 0.718750 1.000000
vt 1.000000 0.500000
vt 0.968750 0.500000
vt 0.687500 1.000000
vt 0.906250 0.500000
vt 0.875000 0.500000
vt 0.625000 0.750000
vt 0.625000 0.500000
vt 0.687500 1.000000
vt 0.656250 1.000000
vt 0.593750 0.750000
vt 0.593750 0.500000
vt 0.625000 1.000000
vt 0.562500 0.750000
vt 0.562500 0.500000
vt 0.593750 1.000000
vt 0.531250 0.750000
vt 0.531250 0.500000
vt 0.562500 1.000000
vt 0.500000 0.750000
vt 0.500000 0.500000
vt 0.531250 1.000000
vt 0.468750 0.750000
vt 0.468750 0.500000
vt 0.500000 1.000000
vt 0.437500 0.750000
vt 0.437500 0.500000
vt 0.468750 1.000000
vt 0.406250 0.750000
vt 0.406250 0.500000
vt 0.437500 1.000000
vt 0.375000 0.750000
vt 0.375000 0.500000
vt 0.406250 1.000000
vt 0.343750 0.750000
vt 0.343750 0.500000
vt 0.375000 1.000000
vt 0.312500 0.750000
vt 0.312500 0.500000
vt 0.343750 1.000000
vt 0.281250 0.750000
vt 0.281250 0.500000
vt 0.312500 1.000000
vt 0.250000 0.750000
vt 0.250000 0.500000
vt 0.281250 1.000000
vt 0.218750 0.750000
vt 0.218750 0.500000
vt 0.250000 1.000000
vt 0.187500 0.750000
vt 0.187500 0.500000
vt 0.218750 1.000000
vt 0.156250 0.750000
vt 0.156250 0.500000
vt 0.187500 1.000000
vt 0.125000 0.750000
vt 0.125000 0.500000
vt 0.156250 1.000000
vt 0.093750 0.750000
vt 0.093750 0.500000
vt 0.125000 1.000000
vt 0.062500 0.750000
vt 0.062500 0.500000
vt 0.093750 1.000000
vt 0.031250 0.750000
vt 0.031250 0.500000
vt 0.062500 1.000000
vt 0.000000 0.750000
vt 0.000000 0.500000
vt 0.187500 0.500000
vt 0.218750 0.500000
vt 0.031250 1.000000
vt 0.937500 0.500000
vt 0.906250 0.500000
vt 0.000000 1.000000
vt 0.449553 0.116663
vt 0.471731 0.158156
vt 0.485388 0.203178
vt 0.490000 0.250000
vt 0.485388 0.296822
vt 0.471731 0.341844
vt 0.449553 0.383337
vt 0.419706 0.419706
vt 0.383337 0.449553
vt 0.341844 0.471731
vt 0.296822 0.485388
vt 0.250000 0.490000
vt 0.203179 0.485389
vt 0.158156 0.471731
vt 0.116663 0.449553
vt 0.080295 0.419706
vt 0.050447 0.383337
vt 0.028269 0.341844
vt 0.014612 0.296822
vt 0.010000 0.250000
vt 0.014611 0.203179
vt 0.028269 0.158156
vt 0.050447 0.116663
vt 0.080294 0.080294
vt 0.116663 0.050447
vt 0.158156 0.028269
vt 0.203178 0.014612
vt 0.250000 0.010000
vt 0.296822 0.014612
vt 0.341844 0.028269
vt 0.383337 0.050447
vt 0.419706 0.080294
vt 0.843750 0.500000
vt 0.812500 0.500000
vt 0.812500 0.500000
vt 0.843750 0.500000
vt 0.437500 0.500000
vt 0.468750 0.500000
vt 0.687500 0.500000
vt 0.718750 0.500000
vt 0.937500 0.500000
vt 0.968750 0.500000
vt 0.093750 0.500000
vt 0.125000 0.500000
vt 0.343750 0.500000
vt 0.375000 0.500000
vt 0.000000 0.500000
vt 0.031250 0.500000
vt 0.875000 0.500000
vt 0.906250 0.500000
vt 0.906250 0.500000
vt 0.937500 0.500000
vt 0.250000 0.500000
vt 0.281250 0.500000
vt 0.750000 0.500000
vt 0.781250 0.500000
vt 0.500000 0.500000
vt 0.531250 0.500000
vt 0.156250 0.500000
vt 0.593750 0.500000
vt 0.625000 0.500000
vt 0.406250 0.500000
vt 0.656250 0.500000
vt 0.062500 0.500000
vt 0.968750 0.500000
vt 1.000000 0.500000
vt 0.312500 0.500000
vt 0.562500 0.500000
vt 0.781250 0.500000
vt 0.812500 0.500000
vt 0.750000 0.500000
vt 0.843750 0.500000
vt 0.875000 0.500000
vt 0.687500 0.500000
vt 0.750000 0.500000
vt 0.718750 0.500000
vt 0.718750 0.500000
vt 0.750000 0.500000
vt 0.281250 0.500000
vt 0.312500 0.500000
vt 0.781250 0.500000
vt 0.812500 0.500000
vt 0.250000 0.500000
vt 0.937500 0.500000
vt 0.968750 0.500000
vt 0.218750 0.500000
vt 0.187500 0.500000
vt 0.656250 0.500000
vt 0.687500 0.500000
vt 0.156250 0.500000
vt 0.562500 0.500000
vt 0.593750 0.500000
vt 0.625000 0.500000
vt 0.125000 0.500000
vt 0.531250 0.500000
vt 0.093750 0.500000
vt 0.500000 0.500000
vt 0.750000 0.500000
vt 0.781250 0.500000
vt 0.062500 0.500000
vt 0.468750 0.500000
vt 0.968750 0.500000
vt 1.000000 0.500000
vt 0.031250 0.500000
vt 0.437500 0.500000
vt 0.687500 0.500000
vt 0.000000 0.500000
vt 0.406250 0.500000
vt 0.906250 0.500000
vt 0.937500 0.500000
vt 0.375000 0.500000
vt 0.843750 0.500000
vt 0.875000 0.500000
vt 0.343750 0.500000
vt 0.875000 0.500000
vt 0.906250 0.500000
vt 0.985388 0.203178
vt 0.971731 0.158156
vt 0.949553 0.116663
vt 0.919706 0.080294
vt 0.883337 0.050447
vt 0.841844 0.028269
vt 0.796822 0.014612
vt 0.750000 0.010000
vt 0.703178 0.014612
vt 0.658156 0.028269
vt 0.616663 0.050447
vt 0.580294 0.080294
vt 0.550447 0.116663
vt 0.528269 0.158156
vt 0.514611 0.203179
vt 0.510000 0.250000
vt 0.514612 0.296822
vt 0.528269 0.341844
vt 0.550447 0.383337
vt 0.580295 0.419706
vt 0.616663 0.449553
vt 0.658156 0.471731
vt 0.703179 0.485389
vt 0.750000 0.490000
vt 0.796822 0.485388
vt 0.841844 0.471731
vt 0.883337 0.449553
vt 0.919706 0.419706
vt 0.949553 0.383337
vt 0.971731 0.341844
vt 0.985388 0.296822
vt 0.990000 0.250000
vt 0.187500 0.500000
vt 0.218750 0.500000
vt 0.656250 0.500000
vt 0.687500 0.500000
vt 0.156250 0.500000
vt 0.562500 0.500000
vt 0.593750 0.500000
vt 0.625000 0.500000
vt 0.125000 0.500000
vt 0.531250 0.500000
vt 0.093750 0.500000
vt 0.500000 0.500000
vt 0.750000 0.500000
vt 0.781250 0.500000
vt 0.062500 0.500000
vt 0.468750 0.500000
vt 0.968750 0.500000
vt 1.000000 0.500000
vt 0.031250 0.500000
vt 0.437500 0.500000
vt 0.687500 0.500000
vt 0.000000 0.500000
vt 0.406250 0.500000
vt 0.906250 0.500000
vt 0.937500 0.500000
vt 0.375000 0.500000
vt 0.843750 0.500000
vt 0.875000 0.500000
vt 0.343750 0.500000
vt 0.875000 0.500000
vt 0.906250 0.500000
vt 0.312500 0.500000
vt 0.812500 0.500000
vt 0.843750 0.500000
vt 0.281250 0.500000
vt 0.781250 0.500000
vt 0.812500 0.500000
vt 0.250000 0.500000
vt 0.937500 0.500000
vt 0.968750 0.500000
vn 0.5732 0.8008 0.1739
vn 0.8242 -0.3559 0.4405
vn 0.5961 0.8008 0.0587
vn 0.2713 -0.3559 -0.8943
vn 0.5961 0.8008 -0.0587
vn 0.0916 -0.3559 -0.9300
vn 0.5732 0.8008 -0.1739
vn 0.4405 -0.3559 -0.8242
vn 0.5283 0.8008 -0.2824
vn 0.5929 -0.3559 -0.7224
vn 0.4630 0.8008 -0.3800
vn 0.7224 -0.3559 -0.5929
vn 0.3800 0.8008 -0.4630
vn 0.8242 -0.3559 -0.4405
vn 0.2824 0.8008 -0.5283
vn 0.9300 -0.3559 0.0916
vn 0.0587 0.8008 -0.5961
vn 0.8943 -0.3559 0.2713
vn 0.1739 0.8008 -0.5732
vn 0.8943 -0.3559 -0.2713
vn 0.7224 -0.3559 0.5929
vn 0.5283 0.8008 0.2824
vn 0.5929 -0.3559 0.7224
vn 0.4630 0.8008 0.3800
vn 0.4405 -0.3559 0.8242
vn 0.3800 0.8008 0.4630
vn 0.2713 -0.3559 0.8943
vn 0.2824 0.8008 0.5283
vn 0.0916 -0.3559 0.9300
vn 0.1739 0.8008 0.5732
vn -0.0916 -0.3559 0.9300
vn 0.0587 0.8008 0.5961
vn -0.2713 -0.3559 0.8943
vn -0.0587 0.8008 0.5961
vn -0.4405 -0.3559 0.8242
vn -0.1739 0.8008 0.5732
vn -0.5929 -0.3559 0.7224
vn -0.2824 0.8008 0.5282
vn -0.7224 -0.3559 0.5929
vn -0.3800 0.8008 0.4630
vn -0.8242 -0.3559 0.4405
vn -0.4630 0.8008 0.3800
vn -0.8943 -0.3559 0.2713
vn -0.5283 0.8008 0.2824
vn -0.9300 -0.3559 0.0916
vn -0.5732 0.8008 0.1739
vn -0.9300 -0.3559 -0.0916
vn -0.5961 0.8008 0.0587
vn -0.8943 -0.3559 -0.2713
vn -0.5961 0.8008 -0.0587
vn -0.8242 -0.3559 -0.4405
vn -0.5732 0.8008 -0.1739
vn -0.7224 -0.3559 -0.5929
vn -0.5282 0.8008 -0.2824
vn -0.5929 -0.3559 -0.7224
vn -0.4630 0.8008 -0.3800
vn -0.4405 -0.3559 -0.8242
vn -0.3800 0.8008 -0.4630
vn -0.2713 -0.3559 -0.8943
vn -0.2824 0.8008 -0.5283
vn -0.0916 -0.3559 -0.9300
vn 0.0000 -1.0000 0.0000
vn -0.1739 0.8008 -0.5732
vn 0.9300 -0.3559 -0.0916
vn -0.0587 0.8008 -0.5961
vn 0.0000 1.0000 0.0000
vn -0.7329 0.3179 0.6015
vn -0.0650 -0.7482 0.6603
vn 0.9073 0.3179 -0.2752
vn -0.6015 0.3179 0.7329
vn 0.9436 0.3179 -0.0929
vn -0.9436 0.3179 -0.0929
vn 0.9436 0.3179 0.0929
vn -0.0929 0.3179 0.9436
vn 0.9073 0.3179 0.2752
vn -0.8362 0.3179 -0.4469
vn 0.8362 0.3179 0.4469
vn -0.4469 0.3179 -0.8362
vn -0.6015 0.3179 -0.7329
vn 0.7329 0.3179 0.6015
vn -0.2752 0.3179 -0.9073
vn -0.7329 0.3179 -0.6015
vn 0.6015 0.3179 0.7329
vn -0.0929 0.3179 -0.9436
vn -0.4469 0.3179 0.8362
vn 0.4469 0.3179 0.8362
vn 0.0929 0.3179 -0.9436
vn -0.9073 0.3179 -0.2752
vn 0.2752 0.3179 0.9073
vn 0.2752 0.3179 -0.9073
vn -0.2752 0.3179 0.9073
vn 0.0929 0.3179 0.9436
vn 0.4469 0.3179 -0.8362
vn -0.9436 0.3179 0.0929
vn 0.6015 0.3179 -0.7329
vn -0.8362 0.3179 0.4469
vn 0.7329 0.3179 -0.6015
vn -0.9073 0.3179 0.2752
vn 0.8362 0.3179 -0.4469
vn 0.6349 -0.7482 0.1926
vn -0.5851 -0.7482 -0.3128
vn 0.5851 -0.7482 0.3128
vn -0.3128 -0.7482 -0.5851
vn -0.4209 -0.7482 -0.5129
vn 0.5129 -0.7482 0.4209
vn -0.1926 -0.7482 -0.6349
vn -0.5129 -0.7482 -0.4209
vn 0.4209 -0.7482 0.5129
vn -0.0650 -0.7482 -0.6603
vn -0.3128 -0.7482 0.5851
vn 0.3128 -0.7482 0.5851
vn 0.0650 -0.7482 -0.6603
vn -0.6349 -0.7482 -0.1926
vn 0.1926 -0.7482 0.6349
vn 0.1926 -0.7482 -0.6349
vn -0.1926 -0.7482 0.6349
vn 0.0650 -0.7482 0.6603
vn 0.3128 -0.7482 -0.5851
vn -0.6603 -0.7482 0.0650
vn 0.4209 -0.7482 -0.5129
vn -0.5851 -0.7482 0.3128
vn 0.5129 -0.7482 -0.4209
vn -0.6349 -0.7482 0.1926
vn 0.5851 -0.7482 -0.3128
vn -0.5129 -0.7482 0.4209
vn 0.6349 -0.7482 -0.1926
vn -0.4209 -0.7482 0.5129
vn 0.6603 -0.7482 -0.0650
vn -0.6603 -0.7482 -0.0650
vn 0.6603 -0.7482 0.0650
usemtl None
s off
f 68/1/1 13/2/1 11/3/1 76/4/1
f 12/5/2 76/6/2 33/7/2 10/8/2
f 73/9/3 15/10/3 13/11/3 68/12/3
f 30/13/4 74/14/4 67/15/4 28/16/4
f 69/17/5 17/18/5 15/19/5 73/20/5
f 32/21/6 75/22/6 74/14/6 30/13/6
f 71/23/7 19/24/7 17/25/7 69/26/7
f 28/27/8 67/28/8 34/29/8 26/30/8
f 70/31/9 21/32/9 19/33/9 71/34/9
f 26/35/10 34/36/10 72/37/10 24/38/10
f 72/39/11 23/40/11 21/41/11 70/42/11
f 24/43/12 72/39/12 70/42/12 22/44/12
f 34/36/13 25/45/13 23/46/13 72/37/13
f 22/47/14 70/31/14 71/34/14 20/48/14
f 67/28/15 27/49/15 25/50/15 34/29/15
f 16/51/16 73/9/16 68/12/16 14/52/16
f 75/22/17 31/53/17 29/54/17 74/14/17
f 14/55/18 68/1/18 76/4/18 12/56/18
f 74/14/19 29/54/19 27/57/19 67/15/19
f 20/58/20 71/23/20 69/26/20 18/59/20
f 10/8/21 33/7/21 77/60/21 8/61/21
f 76/6/22 11/62/22 9/63/22 33/7/22
f 8/61/23 77/60/23 78/64/23 6/65/23
f 33/7/24 9/63/24 7/66/24 77/60/24
f 6/65/25 78/64/25 79/67/25 4/68/25
f 77/60/26 7/66/26 5/69/26 78/64/26
f 4/68/27 79/67/27 80/70/27 2/71/27
f 78/64/28 5/69/28 3/72/28 79/67/28
f 2/71/29 80/70/29 81/73/29 35/74/29
f 79/67/30 3/72/30 1/75/30 80/70/30
f 35/74/31 81/73/31 82/76/31 37/77/31
f 80/70/32 1/75/32 36/78/32 81/73/32
f 37/77/33 82/76/33 83/79/33 39/80/33
f 81/73/34 36/78/34 38/81/34 82/76/34
f 39/80/35 83/79/35 84/82/35 41/83/35
f 82/76/36 38/81/36 40/84/36 83/79/36
f 41/83/37 84/82/37 85/85/37 43/86/37
f 83/79/38 40/84/38 42/87/38 84/82/38
f 43/86/39 85/85/39 86/88/39 45/89/39
f 84/82/40 42/87/40 44/90/40 85/85/40
f 45/89/41 86/88/41 87/91/41 47/92/41
f 85/85/42 44/90/42 46/93/42 86/88/42
f 47/92/43 87/91/43 88/94/43 49/95/43
f 86/88/44 46/93/44 48/96/44 87/91/44
f 49/95/45 88/94/45 89/97/45 51/98/45
f 87/91/46 48/96/46 50/99/46 88/94/46
f 51/98/47 89/97/47 90/100/47 53/101/47
f 88/94/48 50/99/48 52/102/48 89/97/48
f 53/101/49 90/100/49 91/103/49 55/104/49
f 89/97/50 52/102/50 54/105/50 90/100/50
f 55/104/51 91/103/51 92/106/51 57/107/51
f 90/100/52 54/105/52 56/108/52 91/103/52
f 57/107/53 92/106/53 93/109/53 59/110/53
f 91/103/54 56/108/54 58/111/54 92/106/54
f 59/110/55 93/109/55 94/112/55 61/113/55
f 92/106/56 58/111/56 60/114/56 93/109/56
f 61/113/57 94/112/57 95/115/57 63/116/57
f 93/109/58 60/114/58 62/117/58 94/112/58
f 63/116/59 95/115/59 96/118/59 65/119/59
f 94/112/60 62/117/60 64/120/60 95/115/60
f 65/119/61 96/118/61 75/121/61 32/122/61
f 53/101/62 55/104/62 123/123/62 122/124/62
f 95/115/63 64/120/63 66/125/63 96/118/63
f 18/126/64 69/17/64 73/20/64 16/127/64
f 96/118/65 66/125/65 31/128/65 75/121/65
f 9/129/66 11/130/66 13/131/66 15/132/66 17/133/66 19/134/66 21/135/66 23/136/66 25/137/66 27/138/66 29/139/66 31/140/66 66/141/66 64/142/66 62/143/66 60/144/66 58/145/66 56/146/66 54/147/66 52/148/66 50/149/66 48/150/66 46/151/66 44/152/66 42/153/66 40/154/66 38/155/66 36/156/66 1/157/66 3/158/66 5/159/66 7/160/66
f 109/161/67 107/162/67 139/163/67 141/164/67
f 37/77/62 39/80/62 115/165/62 114/166/62
f 30/13/62 28/16/62 100/167/62 104/168/62
f 16/51/62 14/52/62 102/169/62 106/170/62
f 59/110/62 61/113/62 126/171/62 125/172/62
f 43/86/62 45/89/62 118/173/62 117/174/62
f 65/119/62 32/122/62 110/175/62 128/176/62
f 20/58/62 18/59/62 105/177/62 108/178/62
f 18/126/62 16/127/62 106/179/62 105/180/62
f 49/95/62 51/98/62 121/181/62 120/182/62
f 28/27/62 26/30/62 101/183/62 100/184/62
f 2/71/62 35/74/62 113/185/62 112/186/62
f 24/43/62 22/44/62 107/162/62 109/161/62
f 55/104/62 57/107/62 124/187/62 123/123/62
f 8/61/62 6/65/62 98/188/62 97/189/62
f 39/80/62 41/83/62 116/190/62 115/165/62
f 10/8/62 8/61/62 97/189/62 99/191/62
f 61/113/62 63/116/62 127/192/62 126/171/62
f 14/55/62 12/56/62 103/193/62 102/194/62
f 45/89/62 47/92/62 119/195/62 118/173/62
f 6/65/62 4/68/62 111/196/62 98/188/62
f 51/98/62 53/101/62 122/124/62 121/181/62
f 35/74/62 37/77/62 114/166/62 113/185/62
f 26/35/62 24/38/62 109/197/62 101/198/62
f 32/21/62 30/13/62 104/168/62 110/199/62
f 57/107/62 59/110/62 125/172/62 124/187/62
f 41/83/62 43/86/62 117/174/62 116/190/62
f 22/47/62 20/48/62 108/200/62 107/201/62
f 12/5/62 10/8/62 99/191/62 103/202/62
f 63/116/62 65/119/62 128/176/62 127/192/62
f 47/92/62 49/95/62 120/182/62 119/195/62
f 4/68/62 2/71/62 112/186/62 111/196/62
f 142/203/68 136/204/68 168/205/68 174/206/68
f 119/195/69 120/182/69 152/207/69 151/208/69
f 101/198/70 109/197/70 141/209/70 133/210/70
f 120/182/71 121/181/71 153/211/71 152/207/71
f 106/170/72 102/169/72 134/212/72 138/213/72
f 121/181/73 122/124/73 154/214/73 153/211/73
f 110/199/74 104/168/74 136/204/74 142/203/74
f 122/124/75 123/123/75 155/215/75 154/214/75
f 103/202/76 99/191/76 131/216/76 135/217/76
f 123/123/77 124/187/77 156/218/77 155/215/77
f 98/188/78 111/196/78 143/219/78 130/220/78
f 97/189/79 98/188/79 130/220/79 129/221/79
f 124/187/80 125/172/80 157/222/80 156/218/80
f 111/196/81 112/186/81 144/223/81 143/219/81
f 99/191/82 97/189/82 129/221/82 131/216/82
f 125/172/83 126/171/83 158/224/83 157/222/83
f 112/186/84 113/185/84 145/225/84 144/223/84
f 100/184/85 101/183/85 133/226/85 132/227/85
f 126/171/86 127/192/86 159/228/86 158/224/86
f 113/185/87 114/166/87 146/229/87 145/225/87
f 102/194/88 103/193/88 135/230/88 134/231/88
f 127/192/89 128/176/89 160/232/89 159/228/89
f 114/166/90 115/165/90 147/233/90 146/229/90
f 104/168/91 100/167/91 132/234/91 136/204/91
f 128/176/92 110/175/92 142/235/92 160/232/92
f 115/165/93 116/190/93 148/236/93 147/233/93
f 105/180/94 106/179/94 138/237/94 137/238/94
f 116/190/95 117/174/95 149/239/95 148/236/95
f 107/201/96 108/200/96 140/240/96 139/241/96
f 117/174/97 118/173/97 150/242/97 149/239/97
f 108/178/98 105/177/98 137/243/98 140/244/98
f 118/173/99 119/195/99 151/208/99 150/242/99
f 166/245/62 167/246/62 163/247/62 161/248/62 162/249/62 175/250/62 176/251/62 177/252/62 178/253/62 179/254/62 180/255/62 181/256/62 182/257/62 183/258/62 184/259/62 185/260/62 186/261/62 187/262/62 188/263/62 189/264/62 190/265/62 191/266/62 192/267/62 174/268/62 168/269/62 164/270/62 165/271/62 173/272/62 171/273/62 172/274/62 169/275/62 170/276/62
f 154/214/100 155/215/100 187/277/100 186/278/100
f 135/217/101 131/216/101 163/279/101 167/280/101
f 155/215/102 156/218/102 188/281/102 187/277/102
f 130/220/103 143/219/103 175/282/103 162/283/103
f 129/221/104 130/220/104 162/283/104 161/284/104
f 156/218/105 157/222/105 189/285/105 188/281/105
f 143/219/106 144/223/106 176/286/106 175/282/106
f 131/216/107 129/221/107 161/284/107 163/279/107
f 157/222/108 158/224/108 190/287/108 189/285/108
f 144/223/109 145/225/109 177/288/109 176/286/109
f 132/227/110 133/226/110 165/289/110 164/290/110
f 158/224/111 159/228/111 191/291/111 190/287/111
f 145/225/112 146/229/112 178/292/112 177/288/112
f 134/231/113 135/230/113 167/293/113 166/294/113
f 159/228/114 160/232/114 192/295/114 191/291/114
f 146/229/115 147/233/115 179/296/115 178/292/115
f 136/204/116 132/234/116 164/297/116 168/205/116
f 160/232/117 142/235/117 174/298/117 192/295/117
f 147/233/118 148/236/118 180/299/118 179/296/118
f 137/238/119 138/237/119 170/300/119 169/301/119
f 148/236/120 149/239/120 181/302/120 180/299/120
f 139/241/121 140/240/121 172/303/121 171/304/121
f 149/239/122 150/242/122 182/305/122 181/302/122
f 140/244/123 137/243/123 169/306/123 172/307/123
f 150/242/124 151/208/124 183/308/124 182/305/124
f 141/164/125 139/163/125 171/309/125 173/310/125
f 151/208/126 152/207/126 184/311/126 183/308/126
f 133/210/127 141/209/127 173/312/127 165/313/127
f 152/207/128 153/211/128 185/314/128 184/311/128
f 138/213/129 134/212/129 166/315/129 170/316/129
f 153/211/130 154/214/130 186/278/130 185/314/130
