# Blender v2.83.0 OBJ File: ''
# www.blender.org
mtllib chimney.mtl
o Cube
v 1.000000 1.000000 -1.000000
v 1.000000 -1.000000 -1.000000
v 1.000000 1.000000 1.000000
v 1.000000 -1.000000 1.000000
v -1.000000 1.000000 -1.000000
v -1.000000 -1.000000 -1.000000
v -1.000000 1.000000 1.000000
v -1.000000 -1.000000 1.000000
v 0.379929 2.975848 0.379929
v -0.379929 2.975848 0.379929
v 0.379929 2.975848 -0.379929
v -0.379929 2.975848 -0.379929
v 0.379929 4.221307 0.379929
v -0.379929 4.221307 0.379929
v 0.379929 4.221307 -0.379929
v -0.379929 4.221307 -0.379929
vt 0.625000 0.500000
vt 0.625000 0.250000
vt 0.625000 0.250000
vt 0.625000 0.500000
vt 0.375000 0.750000
vt 0.625000 0.750000
vt 0.625000 1.000000
vt 0.375000 1.000000
vt 0.375000 0.000000
vt 0.625000 0.000000
vt 0.375000 0.250000
vt 0.125000 0.500000
vt 0.375000 0.500000
vt 0.125000 0.750000
vt 0.625000 1.000000
vt 0.625000 0.750000
vt 0.625000 0.750000
vt 0.625000 1.000000
vt 0.625000 0.000000
vt 0.625000 0.500000
vt 0.875000 0.500000
vt 0.875000 0.750000
vt 0.625000 0.250000
vt 0.625000 0.000000
vn 0.0000 0.2994 -0.9541
vn 0.0000 0.0000 1.0000
vn -1.0000 0.0000 0.0000
vn 0.0000 -1.0000 0.0000
vn 1.0000 0.0000 0.0000
vn 0.0000 0.0000 -1.0000
vn 0.0000 0.2994 0.9541
vn -0.9541 0.2994 0.0000
vn 0.9541 0.2994 0.0000
vn 0.0000 1.0000 0.0000
usemtl Material
s off
f 1/1/1 5/2/1 12/3/1 11/4/1
f 4/5/2 3/6/2 7/7/2 8/8/2
f 8/9/3 7/10/3 5/2/3 6/11/3
f 6/12/4 2/13/4 4/5/4 8/14/4
f 2/13/5 1/1/5 3/6/5 4/5/5
f 6/11/6 5/2/6 1/1/6 2/13/6
f 10/15/2 9/16/2 13/17/2 14/18/2
f 7/7/7 3/6/7 9/16/7 10/15/7
f 5/2/8 7/10/8 10/19/8 12/3/8
f 3/6/9 1/1/9 11/4/9 9/16/9
f 15/20/10 16/21/10 14/22/10 13/17/10
f 11/4/6 12/3/6 16/23/6 15/20/6
f 9/16/5 11/4/5 15/20/5 13/17/5
f 12/3/3 10/19/3 14/24/3 16/23/3
