# Blender v2.83.0 OBJ File: ''
# www.blender.org
mtllib crate.mtl
o Cube
v 1.000000 1.000000 -1.000000
v 1.000000 -1.000000 -1.000000
v 1.000000 1.000000 1.000000
v 1.000000 -1.000000 1.000000
v -1.000000 1.000000 -1.000000
v -1.000000 -1.000000 -1.000000
v -1.000000 1.000000 1.000000
v -1.000000 -1.000000 1.000000
v 0.811960 0.904013 0.811960
v -0.811960 0.904013 0.811960
v 0.811960 0.904013 -0.811960
v -0.811960 0.904013 -0.811960
v 0.380050 0.142485 0.380050
v -0.380050 0.142485 0.380050
v 0.380050 0.142485 -0.380050
v -0.380050 0.142485 -0.380050
vt 0.000000 0.000000
vt 0.340852 0.000000
vt 0.308805 0.033436
vt 0.032047 0.033436
vt 0.340852 0.000000
vt 0.670426 0.000000
vt 0.670426 0.355624
vt 0.340852 0.355624
vt 1.000000 0.355624
vt 0.670426 0.000000
vt 1.000000 0.000000
vt 0.340852 0.711248
vt 0.000000 0.711248
vt 0.000000 0.355624
vt 0.670426 0.711248
vt 0.340852 0.711248
vt 0.340852 0.355624
vt 0.670426 0.355624
vt 1.000000 0.711248
vt 0.670426 0.711248
vt 0.670426 0.355624
vt 1.000000 0.355624
vt 0.670426 0.711248
vt 0.670426 1.000000
vt 0.526158 0.923201
vt 0.526158 0.788046
vt 0.340852 0.355624
vt 0.308805 0.322188
vt 0.000000 0.355624
vt 0.032047 0.322188
vt 0.526158 0.711248
vt 0.526158 0.846403
vt 0.396617 0.846403
vt 0.396617 0.711248
vt 0.000000 1.000000
vt 0.000000 0.711248
vt 0.144268 0.788046
vt 0.144268 0.923201
vt 0.670426 1.000000
vt 0.814694 0.788046
vt 0.814694 0.923201
vt 0.144268 1.000000
vt 0.144268 0.711248
vt 0.288536 0.788046
vt 0.288536 0.923201
vn -0.4547 0.8907 0.0000
vn 0.0000 0.0000 1.0000
vn -1.0000 0.0000 0.0000
vn 0.0000 -1.0000 0.0000
vn 1.0000 0.0000 0.0000
vn 0.0000 0.0000 -1.0000
vn 0.8698 0.4933 0.0000
vn 0.0000 0.8907 0.4547
vn 0.0000 0.8907 -0.4547
vn 0.4547 0.8907 0.0000
vn 0.0000 1.0000 0.0000
vn 0.0000 0.4933 -0.8698
vn 0.0000 0.4933 0.8698
vn -0.8698 0.4933 0.0000
usemtl Material
s off
f 3/1/1 1/2/1 11/3/1 9/4/1
f 4/5/2 3/6/2 7/7/2 8/8/2
f 8/9/3 7/7/3 5/10/3 6/11/3
f 6/12/4 2/13/4 4/14/4 8/8/4
f 2/15/5 1/16/5 3/17/5 4/18/5
f 6/19/6 5/20/6 1/21/6 2/22/6
f 12/23/7 10/24/7 14/25/7 16/26/7
f 1/2/8 5/27/8 12/28/8 11/3/8
f 7/29/9 3/1/9 9/4/9 10/30/9
f 5/27/10 7/29/10 10/30/10 12/28/10
f 15/31/11 16/32/11 14/33/11 13/34/11
f 10/35/12 9/36/12 13/37/12 14/38/12
f 11/39/13 12/23/13 16/40/13 15/41/13
f 9/42/14 11/43/14 15/44/14 13/45/14
